PathFileType	4	(X/Y/Z)	C:/Users/opensim2020/Desktop/walking_exp_matlab/subject03_walking07_straight_02.trc	
DataRate	CameraRate	NumFrames	NumMarkers	Units	OrigDataRate	OrigDataStartFrame	OrigNumFrames	
100.00	100.00	5	46	mm	100.00	1624	252	
Frame#	Time	LFHD			RFHD			LBHD			RBHD			C7			T10			CLAV			STRN			RBAK			LSHO			LUPA			LELB			LFRM			LWRA			LWRB			LFIN			RSHO			RUPA			RELB			RFRM			RWRA			RWRB			RFIN			LASI			RASI			LPSI			RPSI			LTHI			LKNE			LTIB			LANK			LHEE			LTOE			RTHI			RKNE			RTIB			RANK			RHEE			RTOE			*39			*40			*41			*42			*43			*44			*45			
		X1	Y1	Z1	X2	Y2	Z2	X3	Y3	Z3	X4	Y4	Z4	X5	Y5	Z5	X6	Y6	Z6	X7	Y7	Z7	X8	Y8	Z8	X9	Y9	Z9	X10	Y10	Z10	X11	Y11	Z11	X12	Y12	Z12	X13	Y13	Z13	X14	Y14	Z14	X15	Y15	Z15	X16	Y16	Z16	X17	Y17	Z17	X18	Y18	Z18	X19	Y19	Z19	X20	Y20	Z20	X21	Y21	Z21	X22	Y22	Z22	X23	Y23	Z23	X24	Y24	Z24	X25	Y25	Z25	X26	Y26	Z26	X27	Y27	Z27	X28	Y28	Z28	X29	Y29	Z29	X30	Y30	Z30	X31	Y31	Z31	X32	Y32	Z32	X33	Y33	Z33	X34	Y34	Z34	X35	Y35	Z35	X36	Y36	Z36	X37	Y37	Z37	X38	Y38	Z38	X39	Y39	Z39	X40	Y40	Z40	X41	Y41	Z41	X42	Y42	Z42	X43	Y43	Z43	X44	Y44	Z44	X45	Y45	Z45	X46	Y46	Z46	

158	1.570	-957.41754	-402.94769	1596.49316	-1089.53772	-389.26428	1601.05627	-948.51740	-272.19189	1562.09180	-1079.22400	-263.57309	1565.82800	-1003.74884	-227.42967	1400.58777	-1000.17596	-193.26384	1084.87012	-1012.75775	-347.14401	1321.30347	-1004.68939	-390.84854	1158.07715	-1089.97168	-164.00253	1221.15039	-855.27911	-316.28485	1360.89417	-779.64514	-348.05099	1171.36243	-770.33392	-389.50821	1055.47607	-791.14392	-464.35745	952.37451	-841.62097	-524.67096	859.48969	-787.57635	-514.01215	849.79742	-810.61328	-568.65063	791.75610	-1169.53320	-288.34512	1340.45288	-1233.02563	-265.58310	1116.02783	-1242.91455	-268.03958	1002.13416	-1242.08972	-265.87259	864.81317	-1205.93433	-284.64221	766.69080	-1248.86267	-250.65627	764.99768	-1235.78650	-261.59708	690.88660	-884.99310	-363.54910	919.50696	-1124.85571	-365.84183	926.95264	-939.11084	-202.27930	941.50635	-1087.43579	-203.21318	950.49524	-849.86823	-264.70566	624.11859	-880.47028	-224.97458	448.57651	-879.15112	-90.24919	296.42798	-919.06415	26.04676	120.77293	-954.08325	79.41322	109.05859	-955.25653	-91.84195	28.08137	-1166.71973	-364.62244	637.59106	-1127.92334	-428.37070	467.39166	-1134.44617	-433.76974	279.78229	-1089.47632	-467.47220	65.75156	-1034.98206	-426.77655	34.92970	-1079.21960	-610.34625	33.12605				-1002.10388	-320.63812	1662.28809															 
159	1.580	-958.34302	-413.69022	1598.09216	-1090.44458	-400.15677	1602.64075	-949.60913	-283.19485	1563.90356	-1080.26086	-274.33112	1567.72461	-1004.45703	-237.97063	1402.25891	-1000.21973	-204.02153	1086.41565	-1013.81409	-357.62823	1323.16589	-1005.81470	-401.70688	1160.00061	-1090.85095	-174.71085	1222.68457	-856.29608	-326.91595	1362.87952	-781.16266	-356.96960	1172.57727	-772.12488	-397.09488	1056.17627	-792.36072	-470.34909	951.75861	-842.18475	-529.63293	857.89923	-788.32281	-518.25061	848.33417	-810.84058	-572.11725	789.42865	-1170.48071	-298.83844	1342.37268	-1233.81409	-277.26007	1117.77124	-1243.52600	-280.38467	1003.87030	-1243.17871	-278.48569	866.65594	-1206.93823	-297.24579	768.47620	-1250.24146	-263.46307	766.81268	-1237.07068	-274.20917	692.54871	-886.47394	-375.32004	920.43817	-1126.13342	-376.82953	930.17285	-939.36029	-214.13741	942.60883	-1087.57703	-214.25661	953.01569	-850.41278	-278.31973	624.22363	-879.67206	-240.02205	448.27786	-878.86383	-101.46636	299.17120	-919.15314	19.86517	127.50459	-954.69641	72.70083	118.27379	-955.41882	-92.31102	27.92263	-1167.47510	-374.13620	639.64600	-1128.48755	-436.56839	469.38022	-1135.23560	-438.16550	280.75833	-1089.74487	-467.62537	65.95546	-1035.31104	-426.74319	34.96151	-1079.73767	-610.29926	32.91759				-1002.99365	-331.58896	1664.12048															 
160	1.590	-959.27490	-424.41025	1599.65784	-1091.36401	-411.03235	1604.25342	-950.59265	-293.80261	1565.98535	-1081.28760	-285.10913	1569.81018	-1005.72693	-248.24950	1404.11023	-1000.25562	-214.73172	1088.14502	-1014.80621	-368.13879	1325.19812	-1006.92426	-412.38928	1161.98267	-1091.78967	-185.40326	1224.40417	-857.37451	-337.43182	1365.05286	-782.76611	-365.87161	1174.09753	-774.04462	-404.37964	1057.02478	-793.59058	-476.16092	951.42700	-842.72522	-534.17987	856.33881	-788.99298	-522.07806	847.05145	-810.94873	-574.87683	787.02197	-1171.52307	-309.09213	1344.58386	-1234.81555	-288.76947	1119.72302	-1244.31775	-292.74619	1005.94025	-1244.37402	-291.29834	868.80469	-1208.37939	-309.88248	770.32678	-1251.65979	-276.64841	768.87872	-1238.46667	-287.27011	694.46545	-888.08093	-387.04657	921.69232	-1127.49414	-387.68079	933.33008	-939.68854	-225.91989	943.96710	-1087.79224	-225.26910	955.49878	-850.74115	-292.37820	624.44666	-878.45599	-256.27118	447.98874	-878.36700	-113.73325	302.11298	-919.47522	12.05401	134.53647	-955.53131	64.52575	128.13829	-956.00562	-93.13415	27.83632	-1169.11230	-383.79547	641.76923	-1129.64966	-443.38272	470.89523	-1136.32043	-441.28818	281.32816	-1090.08691	-467.45004	66.13232	-1035.64270	-426.56842	35.00465	-1080.17688	-610.23071	32.75171				-1003.71606	-342.97223	1666.45996															 
161	1.600	-960.11768	-435.08777	1601.17407	-1092.22632	-421.80127	1605.70874	-951.46570	-304.35794	1568.12085	-1082.16589	-295.77094	1571.88379	-1006.65314	-258.60013	1405.81189	-1000.45758	-225.47948	1089.82007	-1015.79602	-378.57068	1327.10864	-1007.94708	-423.18155	1164.04553	-1092.74939	-196.24171	1226.09644	-858.45947	-347.89639	1367.26831	-784.37476	-374.91864	1175.81702	-775.98907	-411.76877	1058.19055	-794.74994	-481.67377	951.16528	-843.15558	-538.31384	854.78198	-789.47833	-525.59418	845.84094	-810.85736	-577.04883	784.43976	-1172.25842	-319.50732	1346.79895	-1235.61951	-300.38553	1121.98303	-1245.37744	-304.92435	1008.26385	-1245.62329	-304.30298	871.13446	-1209.71655	-323.27814	772.63281	-1253.16541	-290.17368	771.12720	-1240.04919	-300.74814	696.62201	-890.14221	-398.65695	923.25464	-1128.82861	-398.44263	936.23419	-940.36707	-237.32942	945.75500	-1088.29993	-236.23558	957.92059	-850.85132	-306.80157	624.74542	-876.92798	-273.54648	447.64923	-877.62506	-127.21723	305.17416	-919.82813	3.01147	141.68321	-956.48456	54.66429	138.32999	-956.82788	-94.32111	27.76153	-1171.14258	-393.07034	643.97424	-1131.34033	-449.01825	471.80597	-1137.30408	-443.45364	281.47491	-1090.24585	-467.31241	66.23199	-1035.92896	-426.45020	34.96212	-1080.24231	-610.18317	32.64349				-1004.78308	-353.74823	1668.08716															 
162	1.610	-960.93420	-445.64774	1602.61023	-1092.98730	-432.43707	1607.02295	-952.27869	-314.83469	1570.26331	-1082.93457	-306.25284	1573.89478	-1007.00824	-269.13242	1407.35156	-1001.02954	-236.13542	1091.43420	-1016.59869	-389.06192	1328.98181	-1008.90753	-434.05463	1165.99731	-1093.69727	-207.10625	1227.72034	-859.51074	-358.24289	1369.46680	-786.04181	-383.94095	1177.49609	-777.89014	-418.98956	1059.32141	-795.76007	-487.07959	950.90210	-843.39813	-542.41760	853.24066	-789.81860	-528.86194	844.66199	-810.72504	-578.73273	781.67920	-1173.18884	-329.72546	1349.05298	-1236.69360	-311.83322	1124.20911	-1246.47778	-317.11810	1010.62421	-1247.00256	-317.44525	873.49011	-1211.25146	-337.05847	775.01270	-1254.82800	-304.07913	773.50433	-1241.53821	-314.68500	698.84784	-891.75043	-409.91336	924.80328	-1130.19739	-409.11481	938.82874	-941.27649	-248.73431	947.37701	-1089.09680	-247.17232	960.17456	-850.75073	-321.44382	624.83710	-875.20953	-291.69351	447.19550	-876.86212	-141.87784	308.14188	-919.67236	-7.78222	148.93544	-957.37067	43.17257	148.79173	-957.67719	-95.31464	27.69973	-1172.64478	-401.18192	645.37335	-1133.23389	-453.83417	472.23807	-1137.98413	-445.38516	281.64972	-1090.28821	-467.17102	66.35519	-1036.02600	-426.37897	34.95574	-1080.33630	-610.14075	32.57280				-1005.47876	-364.97592	1669.85596															 
